<svg width="153" height="52" viewBox="0 0 153 52" fill="none" xmlns="http://www.w3.org/2000/svg">
<path d="M18.2422 51.2245L24.9928 11.6606C27.073 11.6606 28.7308 11.9565 29.9582 12.5565C31.1856 13.1564 32.0941 13.929 32.6919 14.8741C33.2897 15.8274 33.6164 16.8876 33.6882 18.0629C33.7599 19.2381 33.6882 20.3969 33.4809 21.5146L32.66 26.3142H50.4173L51.2382 21.5146C51.4454 20.4216 51.7802 19.2956 52.2584 18.1368C52.7366 16.978 53.43 15.9096 54.3306 14.948C55.2312 13.9783 56.3948 13.1893 57.8135 12.5729C59.2322 11.9565 61.0095 11.6524 63.1614 11.6524L56.4108 51.2163C55.1834 51.2163 53.9959 50.9779 52.8561 50.5012C51.7164 50.0246 50.7202 49.3589 49.8913 48.4959C49.0544 47.633 48.4407 46.5975 48.0502 45.3811C47.6597 44.1648 47.58 42.8252 47.8191 41.3459L48.895 35.9627H31.0899L30.0698 41.3459C29.8625 42.5047 29.4321 43.6799 28.7627 44.8551C28.0932 46.0304 27.2563 47.0988 26.2282 48.0439C25.208 48.9973 24.0125 49.7616 22.6496 50.3369C21.2867 50.9122 19.8203 51.2081 18.2502 51.2081L18.2422 51.2245Z" fill="#231F20"/>
<path d="M64.381 11.6935H80.7355C80.6239 12.3428 80.4087 12.9263 80.0899 13.4358C79.7711 13.9454 79.4045 14.381 78.9741 14.7344C78.5437 15.0877 78.0735 15.359 77.5555 15.5398C77.0374 15.7206 76.5273 15.8192 76.0093 15.8192H73.9211L71.7931 28.3195H67.5371L69.6651 15.8192H67.5769C67.035 15.8192 66.5329 15.737 66.0865 15.5726C65.6323 15.4083 65.2577 15.1617 64.9548 14.8165C64.6519 14.4714 64.4527 14.044 64.3411 13.5344C64.2295 13.0167 64.2455 12.4003 64.373 11.6935H64.381Z" fill="#ED1C24"/>
<path d="M86.4182 11.7343H98.6522C98.5486 12.1781 98.3972 12.6466 98.182 13.1315C97.9668 13.6164 97.6719 14.0602 97.2894 14.4629C96.9068 14.8574 96.4366 15.1943 95.8707 15.4491C95.3048 15.7039 94.6274 15.8354 93.8383 15.8354H85.9081L85.5017 18.1448H94.9143L94.2687 21.9581H84.8561L84.4655 24.1936L92.3957 24.2347C92.9377 24.2182 93.4398 24.3251 93.9021 24.5552C94.3564 24.7853 94.7469 25.0894 95.0737 25.4757C95.4005 25.8619 95.6316 26.2975 95.7751 26.7906C95.9185 27.2837 95.9424 27.7933 95.8388 28.311H83.6048C83.0628 28.311 82.5687 28.2042 82.1303 27.9905C81.692 27.7768 81.3253 27.4892 81.0225 27.1276C80.7196 26.766 80.5044 26.3386 80.3769 25.8455C80.2494 25.3524 80.2334 24.8182 80.3371 24.2429L81.7796 15.8436C81.8832 15.2683 82.0745 14.7259 82.3614 14.2245C82.6484 13.7232 82.999 13.2876 83.4135 12.926C83.8279 12.5644 84.2982 12.2768 84.8082 12.0631C85.3183 11.8494 85.8603 11.7426 86.4182 11.7426V11.7343Z" fill="#ED1C24"/>
<path d="M115.772 17.8985C115.557 19.1231 115.238 20.1421 114.808 20.9476C114.377 21.753 113.827 22.394 113.15 22.8789C112.472 23.3556 111.675 23.7007 110.743 23.898C109.81 24.0952 108.734 24.1939 107.515 24.1939H105.084C104.295 24.1939 103.458 24.1363 102.565 24.013C102.454 24.6377 102.271 25.213 102.031 25.7389C101.784 26.2731 101.458 26.7252 101.051 27.1032C100.645 27.4813 100.135 27.7771 99.5369 27.9908C98.9312 28.2045 98.2138 28.3113 97.369 28.3113L99.1304 17.8903C99.3296 16.7397 99.6405 15.7617 100.055 14.9727C100.469 14.1837 101.011 13.5427 101.681 13.0578C102.35 12.5729 103.155 12.2195 104.096 12.0058C105.044 11.7921 106.152 11.6853 107.427 11.6853H109.659C110.83 11.6853 111.859 11.7839 112.719 11.973C113.58 12.162 114.281 12.4907 114.792 12.9592C115.31 13.4276 115.652 14.0604 115.828 14.8576C116.003 15.6548 115.979 16.6657 115.764 17.8985H115.772ZM103.522 18.6546C103.538 18.9669 103.618 19.2299 103.769 19.4518C103.92 19.6737 104.104 19.8463 104.327 19.986C104.55 20.1175 104.797 20.2161 105.076 20.2819C105.355 20.3476 105.626 20.3805 105.881 20.3805H108.224C108.495 20.3805 108.782 20.3476 109.085 20.2819C109.388 20.2161 109.675 20.1175 109.946 19.986C110.217 19.8545 110.464 19.6737 110.679 19.4518C110.894 19.2299 111.062 18.9669 111.173 18.6546C111.348 18.1944 111.428 17.7259 111.428 17.2328C111.428 16.9205 111.356 16.6575 111.205 16.4356C111.054 16.2137 110.862 16.0411 110.631 15.9014C110.4 15.7617 110.145 15.6713 109.866 15.6055C109.587 15.5398 109.308 15.5069 109.037 15.5069H106.694C106.439 15.5069 106.16 15.5398 105.857 15.6055C105.554 15.6713 105.275 15.7699 105.004 15.9014C104.733 16.0329 104.494 16.2137 104.271 16.4356C104.048 16.6575 103.881 16.9205 103.769 17.2328C103.681 17.4382 103.618 17.6766 103.578 17.9396C103.538 18.2026 103.514 18.4409 103.514 18.6464L103.522 18.6546Z" fill="#ED1C24"/>
<path d="M134.302 17.8985C134.087 19.1231 133.768 20.1421 133.338 20.9476C132.908 21.753 132.358 22.394 131.68 22.8789C131.003 23.3556 130.206 23.7007 129.273 23.898C128.341 24.0952 127.265 24.1939 126.045 24.1939H123.614C122.825 24.1939 121.989 24.1363 121.096 24.013C120.984 24.6377 120.801 25.213 120.562 25.7389C120.315 26.2731 119.988 26.7252 119.582 27.1032C119.175 27.4813 118.665 27.7771 118.067 27.9908C117.462 28.2045 116.744 28.3113 115.899 28.3113L117.661 17.8903C117.86 16.7397 118.171 15.7617 118.585 14.9727C119 14.1837 119.542 13.5427 120.211 13.0578C120.881 12.5729 121.686 12.2195 122.626 12.0058C123.575 11.7921 124.682 11.6853 125.958 11.6853H128.189C129.361 11.6853 130.389 11.7839 131.25 11.973C132.111 12.162 132.812 12.4907 133.322 12.9592C133.84 13.4276 134.183 14.0604 134.358 14.8576C134.533 15.6548 134.51 16.6657 134.294 17.8985H134.302ZM122.052 18.6546C122.068 18.9669 122.148 19.2299 122.299 19.4518C122.451 19.6737 122.634 19.8463 122.857 19.986C123.08 20.1175 123.328 20.2161 123.606 20.2819C123.885 20.3476 124.156 20.3805 124.411 20.3805H126.755C127.026 20.3805 127.313 20.3476 127.615 20.2819C127.918 20.2161 128.205 20.1175 128.476 19.986C128.747 19.8545 128.994 19.6737 129.209 19.4518C129.425 19.2299 129.592 18.9669 129.704 18.6546C129.879 18.1944 129.959 17.7259 129.959 17.2328C129.959 16.9205 129.887 16.6575 129.735 16.4356C129.584 16.2137 129.393 16.0411 129.162 15.9014C128.93 15.7617 128.675 15.6713 128.396 15.6055C128.118 15.5398 127.839 15.5069 127.568 15.5069H125.224C124.969 15.5069 124.69 15.5398 124.388 15.6055C124.085 15.6713 123.806 15.7699 123.535 15.9014C123.264 16.0329 123.025 16.2137 122.801 16.4356C122.578 16.6575 122.411 16.9205 122.299 17.2328C122.212 17.4382 122.148 17.6766 122.108 17.9396C122.068 18.2026 122.044 18.4409 122.044 18.6464L122.052 18.6546Z" fill="#ED1C24"/>
<path d="M141.611 28.3113C140.104 28.3113 138.917 28.1551 138.032 27.8346C137.148 27.5141 136.502 27.0703 136.08 26.4785C135.657 25.895 135.426 25.18 135.378 24.3417C135.338 23.4952 135.41 22.5501 135.593 21.5063L136.175 18.0053C136.39 16.7643 136.733 15.737 137.203 14.9233C137.674 14.1097 138.263 13.4687 138.965 12.992C139.666 12.5235 140.479 12.1866 141.404 11.9975C142.328 11.8085 143.356 11.7099 144.488 11.7099H146.122C146.608 11.7099 147.062 11.7428 147.485 11.8085C147.907 11.8743 148.282 11.9893 148.616 12.1619C148.943 12.3345 149.23 12.5728 149.469 12.8851C149.708 13.1974 149.892 13.5919 150.019 14.085C150.234 13.7481 150.481 13.444 150.768 13.1728C151.055 12.9098 151.382 12.6797 151.757 12.4824L152.53 16.6739C152.06 17.282 151.725 18.1121 151.542 19.1805L151.263 20.8242C151.175 21.2844 151.135 21.7118 151.135 22.1227C151.135 22.5337 151.199 22.8953 151.326 23.224C151.454 23.5527 151.653 23.8157 151.916 24.0212C152.179 24.2267 152.546 24.3582 153 24.4157L151.263 28.3195C150.888 28.2455 150.529 28.1551 150.187 28.04C149.844 27.9332 149.525 27.7853 149.23 27.5962C148.935 27.4072 148.68 27.1853 148.465 26.9223C148.25 26.6593 148.09 26.3224 147.995 25.9279C147.692 26.4457 147.373 26.8566 147.03 27.1689C146.688 27.4812 146.321 27.7195 145.939 27.8921C145.548 28.0647 145.134 28.1715 144.695 28.2209C144.249 28.2702 143.787 28.303 143.3 28.3195H141.627L141.611 28.3113ZM140.304 18.9833L139.961 21.0214C139.889 21.3748 139.841 21.7036 139.818 22.0077C139.794 22.3118 139.802 22.583 139.826 22.8377C139.865 23.1665 139.969 23.4295 140.128 23.6431C140.288 23.8568 140.487 24.0294 140.718 24.1527C140.957 24.276 141.212 24.3664 141.499 24.4157C141.786 24.465 142.073 24.4897 142.36 24.4897H143.093C145.269 24.4897 146.576 23.224 147.007 20.7009L147.246 19.2791C147.349 18.7203 147.373 18.2107 147.333 17.7505C147.293 17.2903 147.166 16.8958 146.959 16.567C146.751 16.2383 146.457 15.9753 146.066 15.7945C145.684 15.6137 145.197 15.5151 144.623 15.5151H143.89C143.444 15.5151 143.029 15.5644 142.647 15.663C142.256 15.7616 141.914 15.9342 141.603 16.1808C141.292 16.4273 141.029 16.7807 140.806 17.2327C140.583 17.6847 140.415 18.26 140.304 18.975V18.9833Z" fill="#ED1C24"/>
<path d="M62.2529 50.7971L65.0903 34.1711C65.967 34.1711 66.6604 34.2944 67.1784 34.5491C67.6965 34.8039 68.079 35.1244 68.3261 35.5271C68.5732 35.9298 68.7166 36.3736 68.7485 36.8667C68.7724 37.3599 68.7485 37.8448 68.6609 38.3214L68.3181 40.335H75.7781L76.1208 38.3214C76.2085 37.8612 76.352 37.3927 76.5512 36.8996C76.7505 36.4147 77.0374 35.9627 77.4199 35.56C77.8025 35.1573 78.2887 34.8204 78.8785 34.5656C79.4683 34.3108 80.2254 34.1793 81.126 34.1793L78.2887 50.8053C77.7706 50.8053 77.2765 50.7067 76.7983 50.5095C76.3201 50.3122 75.9056 50.0328 75.555 49.6712C75.2043 49.3096 74.9492 48.874 74.7819 48.3644C74.6145 47.8549 74.5826 47.2878 74.6862 46.6714L75.1405 44.4113H67.6566L67.2262 46.6714C67.1386 47.1563 66.9553 47.6494 66.6763 48.1425C66.3973 48.6356 66.0387 49.0877 65.6083 49.4821C65.1779 49.8848 64.6758 50.2054 64.102 50.4437C63.5281 50.6903 62.9144 50.8135 62.2529 50.8135V50.7971Z" fill="#231F20"/>
<path d="M92.7941 34.1958C93.8542 34.1793 94.8106 34.2615 95.6554 34.4259C96.5002 34.5985 97.2016 34.9108 97.7595 35.3546C98.3174 35.8066 98.7079 36.4148 98.9231 37.1873C99.1383 37.9598 99.1463 38.9296 98.947 40.1131L98.1341 44.9209C97.9348 46.1044 97.5921 47.0742 97.1139 47.8467C96.6357 48.6192 96.038 49.2192 95.3286 49.663C94.6193 50.1068 93.8063 50.4191 92.8978 50.5917C91.9892 50.7725 91.0009 50.8464 89.9409 50.8382L87.6853 50.8629C86.6094 50.8793 85.653 50.8053 84.8081 50.641C83.9633 50.4766 83.262 50.1725 82.712 49.7287C82.1621 49.2849 81.7795 48.6768 81.5643 47.9124C81.3491 47.1481 81.3412 46.1701 81.5404 44.9866L82.3534 40.1788C82.5526 38.9954 82.8953 38.0256 83.3735 37.253C83.8517 36.4805 84.4495 35.8723 85.1588 35.4121C85.8682 34.9519 86.6811 34.6396 87.5897 34.4588C88.4983 34.278 89.4866 34.1958 90.5466 34.1958H92.8021H92.7941ZM88.2831 47.0495H90.6263C91.6704 47.0495 92.4594 46.7701 92.9934 46.2194C93.5194 45.6688 93.886 44.8387 94.0853 43.7456L94.4758 41.4198C94.6751 40.3103 94.6033 39.4885 94.2527 38.9378C93.902 38.3954 93.2006 38.116 92.1565 38.116H89.8133C88.7693 38.116 87.9802 38.3872 87.4622 38.9378C86.9361 39.4885 86.5775 40.3103 86.3782 41.4198L85.9877 43.7456C85.7885 44.8387 85.8602 45.6606 86.2029 46.2194C86.5456 46.7701 87.239 47.0495 88.2911 47.0495H88.2831Z" fill="#231F20"/>
<path d="M116.481 37.0065C116.657 37.5654 116.728 38.1242 116.704 38.6831C116.68 39.2337 116.593 39.7597 116.449 40.2446C116.298 40.7295 116.099 41.1733 115.86 41.5596C115.612 41.954 115.357 42.2581 115.086 42.48C115.318 42.743 115.469 43.0635 115.549 43.4416C115.628 43.8196 115.652 44.2141 115.628 44.6415C115.597 45.0606 115.525 45.488 115.413 45.9236C115.302 46.3592 115.166 46.7536 115.007 47.107C114.592 48.0111 114.098 48.7096 113.524 49.2027C112.95 49.6959 112.337 50.0657 111.675 50.304C111.014 50.5424 110.328 50.6821 109.611 50.7232C108.894 50.7643 108.184 50.7889 107.483 50.7889H98.1979L99.7202 47.0002L101.266 37.9598L101.027 34.1958H110.273C111.205 34.1958 112.018 34.2369 112.711 34.3191C113.405 34.4012 114.003 34.5492 114.505 34.7628C115.007 34.9765 115.413 35.2642 115.732 35.6258C116.051 35.9874 116.29 36.4476 116.465 37.0147H116.489L116.481 37.0065ZM111.062 44.3867H104.614L104.183 47.0002H110.631L111.062 44.3867ZM105.73 37.9598L105.275 40.598H111.723L112.177 37.9598H105.73Z" fill="#231F20"/>
<path d="M123.941 50.7971C122.435 50.7971 121.247 50.641 120.363 50.3205C119.478 49.9999 118.832 49.5561 118.41 48.9644C117.988 48.3809 117.756 47.6659 117.709 46.8276C117.669 45.9811 117.741 45.036 117.924 43.9922L118.506 40.4911C118.721 39.2501 119.064 38.2228 119.534 37.4092C120.004 36.5956 120.594 35.9545 121.295 35.4779C121.997 35.0094 122.81 34.6724 123.734 34.4834C124.659 34.2944 125.687 34.1958 126.818 34.1958H128.452C128.938 34.1958 129.393 34.2287 129.815 34.2944C130.238 34.3601 130.612 34.4752 130.947 34.6478C131.274 34.8204 131.561 35.0587 131.8 35.371C132.039 35.6833 132.222 36.0778 132.35 36.5709C132.565 36.234 132.812 35.9299 133.099 35.6587C133.386 35.3957 133.713 35.1656 134.087 34.9683L134.86 39.1597C134.39 39.7679 134.055 40.598 133.872 41.6664L133.593 43.3101C133.505 43.7703 133.465 44.1977 133.465 44.6086C133.465 45.0195 133.529 45.3811 133.657 45.7099C133.784 46.0386 133.984 46.3016 134.247 46.5071C134.51 46.7125 134.876 46.8441 135.33 46.9016L133.593 50.8054C133.218 50.7314 132.86 50.641 132.517 50.5259C132.174 50.4191 131.856 50.2712 131.561 50.0821C131.266 49.8931 131.011 49.6712 130.796 49.4082C130.58 49.1452 130.421 48.8083 130.325 48.4138C130.022 48.9315 129.704 49.3425 129.361 49.6548C129.018 49.9671 128.652 50.2054 128.269 50.378C127.878 50.5506 127.464 50.6574 127.026 50.7067C126.579 50.756 126.117 50.7889 125.631 50.8054H123.957L123.941 50.7971ZM122.634 41.4691L122.291 43.5073C122.22 43.8607 122.172 44.1895 122.148 44.4935C122.124 44.7976 122.132 45.0688 122.156 45.3236C122.196 45.6524 122.299 45.9154 122.459 46.129C122.618 46.3427 122.817 46.5153 123.049 46.6386C123.288 46.7619 123.543 46.8523 123.83 46.9016C124.117 46.9509 124.404 46.9755 124.69 46.9755H125.424C127.6 46.9755 128.907 45.7099 129.337 43.1868L129.576 41.765C129.68 41.2062 129.704 40.6966 129.664 40.2364C129.624 39.7761 129.496 39.3816 129.289 39.0529C129.082 38.7242 128.787 38.4612 128.397 38.2804C128.014 38.0996 127.528 38.0009 126.954 38.0009H126.221C125.774 38.0009 125.36 38.0503 124.977 38.1489C124.587 38.2475 124.244 38.4201 123.933 38.6666C123.622 38.9132 123.359 39.2666 123.136 39.7186C122.913 40.1706 122.746 40.7459 122.634 41.4609V41.4691Z" fill="#231F20"/>
<path d="M0.253832 0.204071H39.1397C38.8688 1.74915 38.3587 3.12985 37.6095 4.33797C36.8603 5.55431 35.9756 6.58162 34.9555 7.41991C33.9353 8.25819 32.8115 8.90745 31.5841 9.34303C30.3567 9.77861 29.1294 10.0005 27.902 10.0005H22.9446L17.8836 39.7186H7.7696L12.8306 10.0005H7.87321C6.58206 10.0005 5.39452 9.81148 4.31856 9.42521C3.2426 9.03894 2.34996 8.439 1.63265 7.63358C0.915346 6.82817 0.429174 5.80908 0.174132 4.5763C-0.0809095 3.35175 -0.0570006 1.88886 0.253832 0.204071Z" fill="#ED1C24"/>
</svg>
