<svg width="54" height="36" viewBox="0 0 54 36" fill="none" xmlns="http://www.w3.org/2000/svg">
<path d="M12.7117 35.6526L17.4158 8.66092C18.8647 8.66092 20.016 8.86793 20.8761 9.27528C21.7295 9.68262 22.3647 10.2102 22.7815 10.8579C23.1983 11.5057 23.4299 12.2335 23.4762 13.0349C23.5225 13.8362 23.4762 14.6242 23.3306 15.3922L22.7617 18.6643H35.1339L35.7028 15.3922C35.8484 14.6509 36.08 13.883 36.4174 13.0883C36.7482 12.2936 37.2312 11.5724 37.8597 10.9113C38.4882 10.2502 39.2954 9.70934 40.2812 9.28863C41.267 8.86793 42.5109 8.66092 44.0061 8.66092L39.302 35.6526C38.4485 35.6526 37.6215 35.4924 36.821 35.1651C36.027 34.8446 35.3323 34.3838 34.7501 33.7962C34.1679 33.2085 33.7378 32.5007 33.4666 31.6726C33.1953 30.8446 33.1424 29.9297 33.3078 28.9214L34.0554 25.2486H21.6435L20.929 28.9214C20.7834 29.7161 20.4857 30.5107 20.0226 31.312C19.5594 32.1134 18.9706 32.8413 18.2561 33.489C17.5415 34.1368 16.7079 34.6576 15.7618 35.0516C14.809 35.4456 13.7902 35.6459 12.6985 35.6459L12.7117 35.6526Z" fill="#231F20"/>
<path d="M50.5827 28.5274H53.4343C53.2887 29.4156 53.0571 30.277 52.7396 31.1184C52.4154 31.9598 51.9522 32.7144 51.3502 33.3888C50.7415 34.0633 49.974 34.6042 49.0345 35.0116C48.095 35.4189 46.9372 35.6326 45.5544 35.6593H42.8418C43.0072 34.651 43.3314 33.7094 43.8078 32.8346C44.2841 31.9598 44.8663 31.1985 45.5544 30.5508C46.2425 29.903 47.0166 29.3955 47.8701 29.0416C48.7236 28.681 49.63 28.5141 50.5827 28.5408V28.5274Z" fill="#231F20"/>
<path d="M0.174119 0.84787H27.2739C27.082 1.90296 26.7247 2.84453 26.2087 3.67258C25.686 4.50063 25.0707 5.2018 24.3562 5.77609C23.6416 6.35038 22.8609 6.79112 22.0074 7.08494C21.1539 7.38544 20.3005 7.53235 19.4404 7.53235H15.9867L12.4603 27.8062H5.4075L8.9339 7.53235H5.48027C4.58047 7.53235 3.75346 7.3988 3.00583 7.13837C2.25821 6.87793 1.63629 6.47058 1.13346 5.91633C0.637248 5.36207 0.293209 4.66758 0.121189 3.83285C-0.0574475 2.99145 -0.0375978 1.99645 0.174119 0.84787Z" fill="#ED1C24"/>
</svg>
